IKResults
version=1
nRows=11
nColumns=63
inDegrees=yes

Units are S.I. units (second, meters, Newtons, ...)
If the header above contains a line with 'inDegrees', this indicates whether rotational values are in degrees (yes) or radians (no).

endheader
time	pelvis_tilt	pelvis_list	pelvis_rotation	pelvis_tx	pelvis_ty	pelvis_tz	hip_flexion_r	hip_adduction_r	hip_rotation_r	knee_angle_r	knee_angle_r_beta	ankle_angle_r	subtalar_angle_r	mtp_angle_r	hip_flexion_l	hip_adduction_l	hip_rotation_l	knee_angle_l	knee_angle_l_beta	ankle_angle_l	subtalar_angle_l	mtp_angle_l	L5_S1_Flex_Ext	L5_S1_Lat_Bending	L5_S1_axial_rotation	L4_L5_Flex_Ext	L4_L5_Lat_Bending	L4_L5_axial_rotation	L3_L4_Flex_Ext	L3_L4_Lat_Bending	L3_L4_axial_rotation	L2_L3_Flex_Ext	L2_L3_Lat_Bending	L2_L3_axial_rotation	L1_L2_Flex_Ext	L1_L2_Lat_Bending	L1_L2_axial_rotation	L1_T12_Flex_Ext	L1_T12_Lat_Bending	L1_T12_axial_rotation	Abs_r3	Abs_r2	Abs_r1	Abs_t1	Abs_t2	neck_flexion	neck_bending	neck_rotation	arm_flex_r	arm_add_r	arm_rot_r	elbow_flex_r	pro_sup_r	wrist_flex_r	wrist_dev_r	arm_flex_l	arm_add_l	arm_rot_l	elbow_flex_l	pro_sup_l	wrist_flex_l	wrist_dev_l
      0.03333333	     -5.89613035	     -8.22845468	     19.99595406	     -0.65239775	      0.92953189	     -0.07433619	      6.86225114	     -1.47589383	     -6.65930509	      4.73645548	      0.08266674	      9.71371728	     -6.01377963	      0.00000000	      0.57941919	    -16.54585577	    -25.45401887	      5.14174859	      0.08974044	     16.45186740	     -2.33047868	      0.00000000	      1.03223725	      0.64698024	      0.60316236	      1.91696780	      0.86048372	      0.64086000	      1.69586258	      1.57306776	      0.64086000	      1.17974396	      1.57306776	      0.52776706	      0.95853551	      1.31932211	      0.49006941	      0.58982037	      1.00217240	      0.45237177	      7.37316748	      7.31876991	      3.35460807	      0.00000000	      0.00000000	     21.92154138	     -0.76317402	     -1.44327443	    -10.73884647	    -10.69658589	     -1.08177274	     33.96949972	     89.99559364	      0.00000000	      0.00000000	     -6.91498606	     -8.39899152	     12.64620245	     20.58997302	     89.99559364	      0.00000000	      0.00000000
      0.06666667	     -5.89093431	     -8.22653325	     19.99495004	     -0.65244190	      0.92958672	     -0.07430622	      6.86110060	     -1.47584667	     -6.65903954	      4.74057351	      0.08273862	      9.71353118	     -6.01257758	      0.00000000	      0.58275427	    -16.54659998	    -25.45188263	      5.14443086	      0.08978726	     16.45261682	     -2.33013917	      0.00000000	      1.03203324	      0.64679054	      0.60358110	      1.91658893	      0.86023142	      0.64130492	      1.69552741	      1.57260652	      0.64130492	      1.17951079	      1.57260652	      0.52813346	      0.95834607	      1.31893527	      0.49040964	      0.58970379	      1.00187855	      0.45268582	      7.37171025	      7.31662394	      3.35693699	      0.00000000	      0.00000000	     21.91634108	     -0.76321708	     -1.44310559	    -10.73727798	    -10.69933395	     -1.08298189	     33.97055728	     89.99559364	      0.00000000	      0.00000000	     -6.91912378	     -8.40189938	     12.64635811	     20.59023757	     89.99559364	      0.00000000	      0.00000000
      0.10000000	     -5.87863800	     -8.22151613	     19.99341220	     -0.65263199	      0.92967576	     -0.07415375	      6.86532220	     -1.47047723	     -6.65950503	      4.74633616	      0.08283919	      9.70882741	     -6.01093511	      0.00000000	      0.59832492	    -16.55284847	    -25.44605414	      5.14539601	      0.08980410	     16.46057771	     -2.32911648	      0.00000000	      1.02781252	      0.64509794	      0.60752354	      1.90875064	      0.85798026	      0.64549376	      1.68859319	      1.56849113	      0.64549376	      1.17468693	      1.56849113	      0.53158310	      0.95442671	      1.31548372	      0.49361288	      0.58729208	      0.99925671	      0.45564266	      7.34156207	      7.29747690	      3.37886368	      0.00000000	      0.00000000	     21.90260969	     -0.76355863	     -1.44196554	    -10.71253728	    -10.73292178	     -1.09633002	     33.97527066	     89.99559364	      0.00000000	      0.00000000	     -6.95229826	     -8.43844452	     12.64466213	     20.57764074	     89.99559364	      0.00000000	      0.00000000
      0.13333333	     -5.88251789	     -8.21243349	     19.94176883	     -0.65305337	      0.92978236	     -0.07375282	      6.91616963	     -1.46560001	     -6.66454486	      4.75371072	      0.08296790	      9.67855482	     -6.01254753	      0.00000000	      0.63284595	    -16.55854820	    -25.42562967	      5.14711924	      0.08983418	     16.49222001	     -2.32134607	      0.00000000	      1.02208184	      0.64232914	      0.61169315	      1.89810818	      0.85429776	      0.64992397	      1.67917825	      1.56175907	      0.64992397	      1.16813733	      1.56175907	      0.53523151	      0.94910519	      1.30983758	      0.49700068	      0.58401756	      0.99496784	      0.45876986	      7.30062836	      7.26615570	      3.40205379	      0.00000000	      0.00000000	     21.87747906	     -0.76336793	     -1.43794244	    -10.61395504	    -10.76990047	     -1.13119464	     33.99185665	     89.99559364	      0.00000000	      0.00000000	     -6.94443737	     -8.51969780	     12.63513903	     20.54267061	     89.99559364	      0.00000000	      0.00000000
      0.16666667	     -5.99893208	     -8.17906145	     19.78223204	     -0.65383282	      0.92987886	     -0.07308953	      7.21935161	     -1.52384785	     -6.60778186	      4.98551255	      0.08701361	      9.61853768	     -6.09615262	      0.00000000	      0.83781510	    -16.52630598	    -25.49611238	      5.30038424	      0.09250916	     16.59434972	     -2.33427677	      0.00000000	      1.02643348	      0.63217397	      0.64414694	      1.90618962	      0.84079138	      0.68440612	      1.68632757	      1.53706779	      0.68440612	      1.17311083	      1.53706779	      0.56362857	      0.95314613	      1.28912916	      0.52336939	      0.58650409	      0.97923748	      0.48311020	      7.33171173	      7.15127838	      3.58255202	      0.00000000	      0.00000000	     21.86975075	     -0.71996411	     -1.37987794	    -10.43019767	    -10.69655394	     -1.41702386	     33.74835854	     89.99559364	      0.00000000	      0.00000000	     -6.81122052	     -8.54560534	     12.62209051	     20.20390731	     89.99559364	      0.00000000	      0.00000000
      0.20000000	     -5.97870174	     -8.17333829	     19.78035001	     -0.65421428	      0.93003211	     -0.07278661	      7.23039800	     -1.51224810	     -6.60523855	      4.99645669	      0.08720462	      9.61734467	     -6.09461379	      0.00000000	      0.87170072	    -16.54011346	    -25.48614814	      5.29573180	      0.09242796	     16.60798888	     -2.32866347	      0.00000000	      1.02081307	      0.62928301	      0.65173809	      1.89575195	      0.83694640	      0.69247172	      1.67709379	      1.53003871	      0.69247172	      1.16668726	      1.53003871	      0.57027083	      0.94792702	      1.28323392	      0.52953720	      0.58329259	      0.97475938	      0.48880357	      7.29156567	      7.11857528	      3.62477172	      0.00000000	      0.00000000	     21.84741521	     -0.72120511	     -1.37779905	    -10.38582197	    -10.76020437	     -1.44254851	     33.75691407	     89.99559364	      0.00000000	      0.00000000	     -6.86382066	     -8.61316438	     12.61558233	     20.18194558	     89.99559364	      0.00000000	      0.00000000
      0.23333333	     -6.03383032	     -8.17191489	     19.64603453	     -0.65528573	      0.93011455	     -0.07190421	      7.44579322	     -1.50345859	     -6.58599611	      5.09726090	      0.08896399	      9.57981265	     -6.11540144	      0.00000000	      0.98787421	    -16.54945879	    -25.42518258	      5.29232316	      0.09236846	     16.71141893	     -2.27196651	      0.00000000	      1.01338828	      0.62351286	      0.67359899	      1.88196338	      0.82927210	      0.71569892	      1.66489561	      1.51600916	      0.71569892	      1.15820147	      1.51600916	      0.58939911	      0.94103236	      1.27146742	      0.54729918	      0.57905006	      0.96582141	      0.50519924	      7.23853116	      7.05330213	      3.74635548	      0.00000000	      0.00000000	     21.78845119	     -0.72740280	     -1.36260126	    -10.14898121	    -10.77962957	     -1.54005623	     33.75504307	     89.99559364	      0.00000000	      0.00000000	     -6.76716085	     -8.76209187	     12.57413279	     20.11767536	     89.99559364	      0.00000000	      0.00000000
      0.26666667	     -6.26120928	     -8.15744860	     19.34210715	     -0.65638402	      0.93002884	     -0.07088557	      8.12673994	     -1.59153076	     -6.46439451	      5.77459066	      0.10078562	      9.68587271	     -6.27727424	      0.00000000	      1.30255079	    -16.53191814	    -25.54413149	      5.48754092	      0.09577566	     16.91662028	     -2.18676810	      0.00000000	      1.03288261	      0.61026046	      0.74992545	      1.91816630	      0.81164641	      0.79679579	      1.69692285	      1.48378727	      0.79679579	      1.18048154	      1.48378727	      0.65618477	      0.95913480	      1.24444312	      0.60931442	      0.59018913	      0.94529345	      0.56244408	      7.37777722	      6.90338834	      4.17086035	      0.00000000	      0.00000000	     21.78848858	     -0.74349674	     -1.31884019	     -9.94816489	    -10.75155621	     -1.89622183	     33.34676153	     89.99559364	      0.00000000	      0.00000000	     -6.60637932	     -8.82719246	     12.45153705	     19.78812709	     89.99559364	      0.00000000	      0.00000000
      0.30000000	     -6.69806314	     -8.20133152	     18.89008059	     -0.65741511	      0.92955493	     -0.06961973	      9.06522431	     -1.67223344	     -6.20315149	      6.49236977	      0.11331323	     10.04711597	     -6.33635591	      0.00000000	      1.78889172	    -16.50461162	    -25.99472401	      5.64166783	      0.09846568	     17.07394071	     -2.03673943	      0.00000000	      1.09025625	      0.59512212	      0.84159364	      2.02471489	      0.79151241	      0.89419325	      1.79118200	      1.44697991	      0.89419325	      1.24605387	      1.44697991	      0.73639444	      1.01241196	      1.21357302	      0.68379484	      0.62297242	      0.92184416	      0.63119523	      7.78759140	      6.73214040	      4.68069137	      0.00000000	      0.00000000	     21.65403393	     -0.76183879	     -1.35986803	     -9.87584915	    -10.71255975	     -2.37007643	     33.21317343	     89.99559364	      0.00000000	      0.00000000	     -6.59562843	     -8.96505938	     12.20451184	     19.63419018	     89.99559364	      0.00000000	      0.00000000
      0.33333333	     -8.73606002	     -8.79084279	     18.13655814	     -0.65675444	      0.92690049	     -0.06876242	     11.60248243	     -1.76433661	     -6.80056352	      7.06258636	      0.12326539	     10.49731878	     -4.98558648	      0.00000000	      3.84034120	    -16.59056807	    -28.34923149	      5.75805852	      0.10049708	     17.74491428	      0.93332347	      0.00000000	      1.48842684	      0.57716588	      0.94808404	      2.76415748	      0.76763062	      1.00733929	      2.44533646	      1.40332113	      1.00733929	      1.70112304	      1.40332113	      0.82957353	      1.38215316	      1.17695667	      0.77031828	      0.85048710	      0.89402995	      0.71106303	     10.63168408	      6.52901590	      5.27295898	      0.00000000	      0.00000000	     20.39489977	     -0.75016412	     -1.44335954	    -10.84492547	    -10.55719212	     -3.23651583	     33.42191479	     89.99559364	      0.00000000	      0.00000000	     -7.94447098	     -8.65968319	      7.59592529	     20.13712876	     89.99559364	      0.00000000	      0.00000000
      0.36666667	     -8.75304609	     -8.80757042	     18.10231241	     -0.65819356	      0.92678884	     -0.06790763	     11.79836310	     -1.73446188	     -6.80240230	      7.17321893	      0.12519629	     10.57467489	     -5.01951044	      0.00000000	      3.98992802	    -16.64856984	    -28.24552778	      5.75866496	      0.10050766	     17.85826906	      0.99029401	      0.00000000	      1.47312682	      0.57098326	      0.97915544	      2.73574381	      0.75940774	      1.04035265	      2.42020004	      1.38828871	      1.04035265	      1.68363664	      1.38828871	      0.85676101	      1.36794556	      1.16434907	      0.79556379	      0.84174466	      0.88445308	      0.73436658	     10.52239753	      6.45907688	      5.44576881	      0.00000000	      0.00000000	     20.32069387	     -0.76517398	     -1.42688798	    -10.62256881	    -10.68200512	     -3.26277620	     33.43309022	     89.99559364	      0.00000000	      0.00000000	     -7.79011859	     -8.84699258	      7.54452692	     20.20884988	     89.99559364	      0.00000000	      0.00000000
